<svg xmlns="http://www.w3.org/2000/svg" width="25.436" height="19.874" viewBox="0 0 25.436 19.874"><path d="M0,9.5V8.706A1.192,1.192,0,0,1,1.192,7.514H19.077V5.129a1.193,1.193,0,0,1,2.035-.843l3.974,3.974a1.192,1.192,0,0,1,0,1.686l-3.974,3.974a1.193,1.193,0,0,1-2.035-.843V10.693H1.192A1.192,1.192,0,0,1,0,9.5Zm24.244,7.551H6.359V14.668a1.193,1.193,0,0,0-2.035-.843L.349,17.8a1.192,1.192,0,0,0,0,1.686L4.324,23.46a1.193,1.193,0,0,0,2.035-.843V20.232H24.244a1.192,1.192,0,0,0,1.192-1.192v-.795A1.192,1.192,0,0,0,24.244,17.052Z" transform="translate(0 -3.936)" fill="#00b28e"/></svg>